# xmcd CD database file
#
# Track frame offsets:
#	150
#	31522
#	62579
#	88073
#	122947
#	162581
#	202064
#	238031
#	267768
#	290784
#	324617
#
# Disc length: 4575 seconds
#
# Revision: 0
# Processed by: cddbd v1.4PL0 Copyright (c) Steve Scherf et al.
# Submitted via: CDex 1.50Beta7
#
DISCID=a311dd0b
DTITLE=Azucar - Live at latina café
DYEAR=2002
DGENRE=Salsa
TTITLE0=Somos Azucar, somos candela
TTITLE1=Hay habana
TTITLE2=Quand on a que l'amour
TTITLE3=Samanta cha
TTITLE4=Get-up Stand-up
TTITLE5=Avec toi
TTITLE6=A tu Lado
TTITLE7=No lo ames
TTITLE8=Asi estoy yo
TTITLE9=El Congosa
TTITLE10=Quand a que l'amour (edit Radio)
EXTD=YEAR: 2002
EXTT0=
EXTT1=
EXTT2=
EXTT3=
EXTT4=
EXTT5=
EXTT6=
EXTT7=
EXTT8=
EXTT9=
EXTT10=
PLAYORDER=
